<svg id="Camada_1" data-name="Camada 1" xmlns="http://www.w3.org/2000/svg" viewBox="0 0 148.53 149.19"><defs><style>.cls-1{fill:#b3b3b3;}.cls-2,.cls-5{fill:#1d1d1b;}.cls-3{fill:none;}.cls-4{fill:#d9da00;}.cls-5{fill-rule:evenodd;}</style></defs><path class="cls-1" d="M54.53,138.45l2.24,1.32a61,61,0,0,0,31.12,8.53h0a61.15,61.15,0,1,0-51.81-28.65L37.57,122l-6.18,22.56ZM13.72,162l10.44-38.11a73.58,73.58,0,1,1,63.76,36.84h0a73.54,73.54,0,0,1-35.15-8.95Z" transform="translate(-12.97 -12.8)"/><path class="cls-2" d="M13,161.24,23.4,123.12A73.59,73.59,0,1,1,87.16,160h0A73.5,73.5,0,0,1,52,151Z" transform="translate(-12.97 -12.8)"/><path class="cls-3" d="M87.18,25.23a61.17,61.17,0,0,0-51.83,93.66l1.46,2.31-6.18,22.56,23.15-6.07L56,139a61,61,0,0,0,31.13,8.52h0a61.16,61.16,0,0,0,0-122.31Z" transform="translate(-12.97 -12.8)"/><path class="cls-4" d="M87.18,25.23a61.17,61.17,0,0,0-51.83,93.66l1.46,2.32-6.18,22.55,23.15-6.07L56,139a61,61,0,0,0,31.13,8.52h0a61.16,61.16,0,0,0,0-122.31Z" transform="translate(-12.97 -12.8)"/><path class="cls-5" d="M68.77,55.6c-1.38-3.06-2.83-3.12-4.13-3.17l-3.53,0a6.75,6.75,0,0,0-4.9,2.3A20.64,20.64,0,0,0,49.77,70c0,9,6.59,17.78,7.51,19S70,109.41,88.69,116.78c15.52,6.12,18.68,4.9,22.06,4.6s10.87-4.45,12.4-8.74,1.54-8,1.08-8.74-1.69-1.23-3.53-2.15-10.88-5.36-12.56-6-2.91-.92-4.14.92-4.74,6-5.82,7.21-2.14,1.38-4,.46a50.18,50.18,0,0,1-14.78-9.12A55.37,55.37,0,0,1,69.19,82.51c-1.08-1.84-.12-2.84.81-3.75s1.83-2.15,2.76-3.22a12.47,12.47,0,0,0,1.83-3.07,3.39,3.39,0,0,0-.15-3.22c-.46-.92-4-10-5.67-13.65" transform="translate(-12.97 -12.8)"/></svg>